<svg class="icon" width="16" height="16" viewBox="0 0 16 16" fill="currentColor"><path d="M14.146 1.354a.5.5 0 0 1 .854.353V6a.5.5 0 0 1-.5.5h-4.293a.5.5 0 0 1-.353-.854l4.292-4.292Z"/><path fill-rule="evenodd" clip-rule="evenodd" d="M1.09 6.88a7.002 7.002 0 0 1 12.289-3.36.75.75 0 0 1-1.152.96A5.502 5.502 0 0 0 2.57 7.12a.75.75 0 1 1-1.482-.238Zm13.2 1.38a.75.75 0 0 1 .62.86 7.002 7.002 0 0 1-12.289 3.36.75.75 0 1 1 1.152-.96 5.502 5.502 0 0 0 9.657-2.64.75.75 0 0 1 .86-.621Z"/><path d="M1.854 14.646A.5.5 0 0 1 1 14.293V10a.5.5 0 0 1 .5-.5h4.293a.5.5 0 0 1 .353.854l-4.292 4.292Z"/></svg>
