<svg class="icon" width="16" height="16" viewBox="0 0 16 16" fill="currentColor"><g clip-path="url(#arrow-right-circle__a)"><path d="M9.854 4.854A.5.5 0 0 0 9 5.207v5.586a.5.5 0 0 0 .854.353l2.792-2.792a.5.5 0 0 0 0-.708L9.854 4.854Z"/><path fill-rule="evenodd" clip-rule="evenodd" d="M3.25 8A.75.75 0 0 1 4 7.25h5a.75.75 0 0 1 0 1.5H4A.75.75 0 0 1 3.25 8Z"/><path fill-rule="evenodd" clip-rule="evenodd" d="M8 1.5a6.5 6.5 0 1 0 0 13 6.5 6.5 0 0 0 0-13ZM0 8a8 8 0 1 1 16 0A8 8 0 0 1 0 8Z"/></g><defs><clipPath id="arrow-right-circle__a"><path d="M0 0h16v16H0z"/></clipPath></defs></svg>
