<svg class="icon" width="16" height="16" viewBox="0 0 16 16" fill="currentColor"><path d="M1.854 1.354A.5.5 0 0 0 1 1.707V6a.5.5 0 0 0 .5.5h4.293a.5.5 0 0 0 .353-.854L1.854 1.354Z"/><path fill-rule="evenodd" clip-rule="evenodd" d="M8 2.5a5.487 5.487 0 0 0-4.227 1.98.75.75 0 0 1-1.152-.96 7.002 7.002 0 0 1 12.29 3.361.75.75 0 1 1-1.481.238A5.502 5.502 0 0 0 8 2.5ZM1.71 8.26a.75.75 0 0 1 .86.62 5.502 5.502 0 0 0 9.656 2.64.75.75 0 0 1 1.153.96 7.002 7.002 0 0 1-12.29-3.36.75.75 0 0 1 .621-.86Z"/><path d="M14.146 14.646a.5.5 0 0 0 .854-.353V10a.5.5 0 0 0-.5-.5h-4.293a.5.5 0 0 0-.353.854l4.292 4.292Z"/></svg>
