<svg class="icon" width="16" height="16" viewBox="0 0 16 16" xmlns="http://www.w3.org/2000/svg" fill="currentColor"><path d="M13.146 7.146A.5.5 0 0 0 14 6.793V2.5a.5.5 0 0 0-.5-.5H9.207a.5.5 0 0 0-.353.854l4.292 4.292Z"/><path fill-rule="evenodd" clip-rule="evenodd" d="M11.53 4.47a.75.75 0 0 1 0 1.06l-5.5 5.5a.75.75 0 1 1-1.06-1.06l5.5-5.5a.75.75 0 0 1 1.06 0Z"/><path fill-rule="evenodd" clip-rule="evenodd" d="M.75 7A2.25 2.25 0 0 1 3 4.75h3a.75.75 0 0 1 0 1.5H3a.75.75 0 0 0-.75.75v6c0 .414.336.75.75.75h6a.75.75 0 0 0 .75-.75v-3a.75.75 0 0 1 1.5 0v3A2.25 2.25 0 0 1 9 15.25H3A2.25 2.25 0 0 1 .75 13V7Z"/></svg>
