<svg class="icon" width="16" height="16" viewBox="0 0 16 16" fill="currentColor"><g clip-path="url(#arrow-up-down-left-right__a)"><path d="M5.207 4h5.586a.5.5 0 0 0 .353-.854L8.354.354a.5.5 0 0 0-.708 0L4.854 3.146A.5.5 0 0 0 5.207 4Zm5.939 8.854a.5.5 0 0 0-.353-.854H5.207a.5.5 0 0 0-.353.854l2.792 2.792a.5.5 0 0 0 .708 0l2.792-2.792Z"/><path fill-rule="evenodd" clip-rule="evenodd" d="M7.25 12V4h1.5v8h-1.5Z"/><path d="M3.146 11.146A.5.5 0 0 0 4 10.793V5.207a.5.5 0 0 0-.854-.353L.354 7.646a.5.5 0 0 0 0 .708l2.792 2.792Zm9.708-6.292a.5.5 0 0 0-.854.353v5.586a.5.5 0 0 0 .854.353l2.792-2.792a.5.5 0 0 0 0-.708l-2.792-2.792Z"/><path fill-rule="evenodd" clip-rule="evenodd" d="M3.25 7.25h9.5v1.5h-9.5v-1.5Z"/></g><defs><clipPath id="arrow-up-down-left-right__a"><path d="M0 0h16v16H0z"/></clipPath></defs></svg>
