<svg xmlns="http://www.w3.org/2000/svg" class="icon" width="16" height="16" fill="currentColor" viewBox="0 0 16 16"><path d="M14.146 1.354a.5.5 0 01.854.353V6a.5.5 0 01-.5.5h-4.293a.5.5 0 01-.353-.854l4.292-4.292z"/><path fill-rule="evenodd" d="M1.09 6.88a7.002 7.002 0 0112.289-3.36.75.75 0 01-1.152.96A5.502 5.502 0 002.57 7.12a.75.75 0 11-1.482-.238zm13.2 1.38a.75.75 0 01.62.86 7.002 7.002 0 01-12.289 3.36.75.75 0 111.152-.96A5.502 5.502 0 0013.43 8.88a.75.75 0 01.86-.621z" clip-rule="evenodd"/><path d="M1.854 14.646A.5.5 0 011 14.293V10a.5.5 0 01.5-.5h4.293a.5.5 0 01.353.854l-4.292 4.292z"/></svg>
