<svg class="icon" width="16" height="16" viewBox="0 0 16 16" fill="currentColor"><g clip-path="url(#arrow-left-circle__a)"><path d="M6.146 4.854A.5.5 0 0 1 7 5.207v5.586a.5.5 0 0 1-.854.353L3.354 8.354a.5.5 0 0 1 0-.708l2.792-2.792Z"/><path fill-rule="evenodd" clip-rule="evenodd" d="M12.75 8a.75.75 0 0 0-.75-.75H7a.75.75 0 0 0 0 1.5h5a.75.75 0 0 0 .75-.75Z"/><path fill-rule="evenodd" clip-rule="evenodd" d="M8 1.5a6.5 6.5 0 1 1 0 13 6.5 6.5 0 0 1 0-13ZM16 8A8 8 0 1 0 0 8a8 8 0 0 0 16 0Z"/></g><defs><clipPath id="arrow-left-circle__a"><path d="M16 0H0v16h16z"/></clipPath></defs></svg>
