<svg class="icon" width="16" height="16" viewBox="0 0 16 16" fill="currentColor"><path d="M8.854 13.146a.5.5 0 0 0 .353.854H13.5a.5.5 0 0 0 .5-.5V9.207a.5.5 0 0 0-.854-.353l-4.292 4.292ZM6.793 2H2.5a.5.5 0 0 0-.5.5v4.293a.5.5 0 0 0 .854.353l4.292-4.292A.5.5 0 0 0 6.793 2Z"/><path fill-rule="evenodd" clip-rule="evenodd" d="M4.47 4.47a.75.75 0 0 1 1.06 0l6 6a.75.75 0 1 1-1.06 1.06l-6-6a.75.75 0 0 1 0-1.06Z"/><path d="M13.146 7.146A.5.5 0 0 0 14 6.793V2.5a.5.5 0 0 0-.5-.5H9.207a.5.5 0 0 0-.353.854l4.292 4.292ZM2.854 8.854A.5.5 0 0 0 2 9.207V13.5a.5.5 0 0 0 .5.5h4.293a.5.5 0 0 0 .353-.854L2.854 8.854Z"/><path fill-rule="evenodd" clip-rule="evenodd" d="M11.53 4.47a.75.75 0 0 1 0 1.06l-6 6a.75.75 0 0 1-1.06-1.06l6-6a.75.75 0 0 1 1.06 0Z"/></svg>
