<svg class="icon" width="16" height="16" viewBox="0 0 16 16" fill="currentColor"><path d="M1.25 2.75A.75.75 0 0 1 2 2h10a.75.75 0 0 1 0 1.5H2a.75.75 0 0 1-.75-.75ZM2 14.25a.75.75 0 0 1-.75-.75v-8a.75.75 0 0 1 1.5 0v8a.75.75 0 0 1-.75.75ZM4.25 9.5A.75.75 0 0 1 5 8.75h9a.75.75 0 0 1 0 1.5H5a.75.75 0 0 1-.75-.75Zm0 3a.75.75 0 0 1 .75-.75h7a.75.75 0 0 1 0 1.5H5a.75.75 0 0 1-.75-.75Zm0-6A.75.75 0 0 1 5 5.75h9a.75.75 0 0 1 0 1.5H5a.75.75 0 0 1-.75-.75Z" fill-rule="evenodd" clip-rule="evenodd"/></svg>
