<svg xmlns="http://www.w3.org/2000/svg" class="icon" width="16" height="16" fill="currentColor" viewBox="0 0 16 16"><path d="M3.338 10.623a.245.245 0 01-.302.019l-.618-.42a.258.258 0 01-.036-.392c.25-.261.443-.506.578-.733.115-.194.206-.392.272-.592.05-.15-.07-.296-.228-.296H2.25a.25.25 0 01-.25-.25V6a.25.25 0 01.25-.25h2.31a.25.25 0 01.25.25v1.424c0 .62-.118 1.198-.352 1.735-.215.494-.588.982-1.12 1.464zm4.19 0a.245.245 0 01-.302.019l-.617-.42a.258.258 0 01-.036-.392c.25-.261.443-.506.577-.733.116-.194.207-.392.273-.592.05-.15-.07-.296-.228-.296H6.44a.25.25 0 01-.25-.25V6a.25.25 0 01.25-.25H8.75A.25.25 0 019 6v1.424c0 .62-.117 1.198-.351 1.735-.215.494-.589.982-1.12 1.464z"/><path fill-rule="evenodd" d="M1.25 3A.75.75 0 012 2.25h12a.75.75 0 010 1.5H2A.75.75 0 011.25 3zm9 3.5a.75.75 0 01.75-.75h3a.75.75 0 010 1.5h-3a.75.75 0 01-.75-.75zm0 3a.75.75 0 01.75-.75h3a.75.75 0 010 1.5h-3a.75.75 0 01-.75-.75zm-9 3.5a.75.75 0 01.75-.75h12a.75.75 0 010 1.5H2a.75.75 0 01-.75-.75z" clip-rule="evenodd"/></svg>
