<svg class="icon" width="16" height="16" viewBox="0 0 16 16" xmlns="http://www.w3.org/2000/svg" fill="currentColor"><path d="M4 14a1 1 0 0 1-1-1V3a1 1 0 0 1 1-1h4.458c1.22 0 2.162.284 2.826.851.674.556 1.011 1.305 1.011 2.247 0 .624-.15 1.169-.45 1.634a2.624 2.624 0 0 1-1.22 1.038c.632.204 1.119.55 1.461 1.039.343.476.514 1.072.514 1.787 0 1.055-.358 1.89-1.076 2.502-.706.601-1.674.902-2.905.902H4Zm1.825-7.234h2.103c.536 0 .926-.102 1.172-.306.257-.205.386-.517.386-.937 0-.42-.129-.726-.386-.919-.246-.204-.636-.306-1.172-.306H5.825v2.468Zm0 4.936h2.392c.546 0 .942-.108 1.188-.323.257-.227.386-.562.386-1.005 0-.442-.129-.771-.386-.987-.246-.215-.642-.323-1.188-.323H5.825v2.638Z"/></svg>
