<svg class="icon" width="16" height="16" viewBox="0 0 16 16" fill="currentColor"><path fill-rule="evenodd" clip-rule="evenodd" d="M6.16 1.75 4.802 8.399h1.693a.75.75 0 0 1 .74.865l-.632 4.074 4.447-6.815H8.24a.75.75 0 0 1-.659-1.108L9.574 1.75H6.16Zm-1.43-.496C4.844.694 5.33.25 5.94.25h4.057c1.004 0 1.51 1.088 1.082 1.874l-1.577 2.9h2.01c1.053 0 1.54 1.178 1.03 1.96l-5.353 8.202a1.212 1.212 0 0 1-1.502.466 1.253 1.253 0 0 1-.749-1.363L5.62 9.9H4.487c-.83 0-1.361-.78-1.21-1.518L4.73 1.253Z"/></svg>
