<svg class="icon" width="16" height="16" viewBox="0 0 16 16" fill="currentColor"><path fill-rule="evenodd" clip-rule="evenodd" d="M4.513 1.9c.931-.413 2.165-.65 3.487-.65s2.556.237 3.487.65c.464.207.886.472 1.203.804.32.337.56.776.56 1.296v8c0 .52-.24.96-.56 1.296-.317.332-.739.597-1.203.804-.931.413-2.165.65-3.487.65s-2.556-.237-3.487-.65c-.464-.207-.886-.472-1.203-.804-.32-.337-.56-.776-.56-1.296V4c0-.52.24-.96.56-1.296.317-.332.739-.597 1.203-.804ZM4.25 5.974V8c0 .032.012.12.147.261.139.147.376.312.726.468.697.31 1.714.521 2.877.521 1.163 0 2.18-.211 2.877-.521.35-.156.587-.321.726-.468.136-.142.147-.229.147-.261V5.974a5.121 5.121 0 0 1-.263.126c-.931.413-2.165.65-3.487.65s-2.556-.237-3.487-.65a5.122 5.122 0 0 1-.263-.126ZM11.75 4c0 .032-.011.12-.147.261-.139.147-.376.312-.726.468-.697.31-1.714.521-2.877.521-1.163 0-2.18-.211-2.877-.521-.35-.156-.587-.321-.726-.468C4.262 4.12 4.25 4.032 4.25 4s.012-.12.147-.261c.139-.147.376-.312.726-.468C5.82 2.961 6.837 2.75 8 2.75c1.163 0 2.18.211 2.877.521.35.156.587.321.726.468.136.142.147.229.147.261Zm0 5.974a5.138 5.138 0 0 1-.263.126c-.931.413-2.165.65-3.487.65s-2.556-.237-3.487-.65a5.14 5.14 0 0 1-.263-.126V12c0 .032.012.12.147.261.139.147.376.312.726.468.697.31 1.714.521 2.877.521 1.163 0 2.18-.211 2.877-.521.35-.156.587-.321.726-.467.136-.143.147-.23.147-.262V9.974Z"/></svg>
