<svg class="icon" width="16" height="16" viewBox="0 0 16 16" xmlns="http://www.w3.org/2000/svg" fill="currentColor"><g clip-path="url(#a)"><path fill-rule="evenodd" clip-rule="evenodd" d="M1.763.65C2.694.237 3.928 0 5.25 0s2.556.237 3.487.65c.464.207.886.472 1.203.804.32.337.56.776.56 1.296s-.24.96-.56 1.296c-.317.332-.739.597-1.203.804-.931.413-2.165.65-3.487.65s-2.556-.237-3.487-.65a5.122 5.122 0 0 1-.263-.126V6.75c0 .032.012.12.147.261.139.147.376.312.726.468C3.07 7.789 4.087 8 5.25 8a.75.75 0 0 1 0 1.5c-1.322 0-2.556-.237-3.487-.65a5.122 5.122 0 0 1-.263-.126v2.026c0 .032.012.12.147.261.139.147.376.312.726.468.697.31 1.714.521 2.877.521a.75.75 0 0 1 0 1.5c-1.322 0-2.556-.237-3.487-.65-.464-.207-.886-.472-1.203-.804C.24 11.709 0 11.27 0 10.75v-8c0-.52.24-.96.56-1.296.317-.332.74-.597 1.203-.804ZM1.5 2.75c0 .032.012.12.147.261.139.147.376.312.726.468C3.07 3.789 4.087 4 5.25 4c1.163 0 2.18-.211 2.877-.521.35-.156.587-.321.726-.468C8.988 2.87 9 2.782 9 2.75s-.012-.12-.147-.261c-.139-.147-.376-.312-.726-.468C7.43 1.711 6.413 1.5 5.25 1.5c-1.163 0-2.18.211-2.877.521-.35.156-.587.321-.726.468-.135.142-.147.229-.147.261Z"/><path fill-rule="evenodd" clip-rule="evenodd" d="M6.75 7.5c0 .414.336.75.75.75h7.448a.75.75 0 0 0 0-1.5h-.894l-.33-.646a1.25 1.25 0 0 0-1.113-.682h-2.435c-.47 0-.9.263-1.113.682l-.33.646H7.5a.75.75 0 0 0-.75.75Zm1.833 1.842a.75.75 0 1 0-1.49.176l.626 5.3a1.25 1.25 0 0 0 1.241 1.104h4.528a1.25 1.25 0 0 0 1.242-1.104l.625-5.3a.75.75 0 0 0-1.49-.176l-.6 5.08H9.183l-.599-5.08Zm3.141.477a.5.5 0 1 0-1 0v3.669a.5.5 0 1 0 1 0V9.819Z"/></g><defs><clipPath id="a"><path d="M0 0h16v16H0z"/></clipPath></defs></svg>
