<svg xmlns="http://www.w3.org/2000/svg" class="icon" width="16" height="16" fill="currentColor" viewBox="0 0 16 16"><path fill-rule="evenodd" d="M12 14.5a2.5 2.5 0 100-5 2.5 2.5 0 000 5zm0 1.5a4 4 0 100-8 4 4 0 000 8z" clip-rule="evenodd"/><path fill-rule="evenodd" d="M12 10a.5.5 0 01.5.5v1.261l.686.275a.5.5 0 11-.372.928l-1.314-.526V10.5a.5.5 0 01.5-.5z" clip-rule="evenodd"/><path d="M0 4.75A2.25 2.25 0 012.25 2.5H3V1a1 1 0 012 0v1.5h6V1a1 1 0 112 0v1.5h.75A2.25 2.25 0 0116 4.75V7H1.5v6.75c0 .414.336.75.75.75H7A.75.75 0 017 16H2.25A2.25 2.25 0 010 13.75v-9z"/></svg>
