<svg class="icon" width="16" height="16" viewBox="0 0 16 16" xmlns="http://www.w3.org/2000/svg" fill="currentColor"><g clip-path="url(#a)"><path fill-rule="evenodd" clip-rule="evenodd" d="M0 4.75A2.25 2.25 0 0 1 2.25 2.5h11.5A2.25 2.25 0 0 1 16 4.75v9A2.25 2.25 0 0 1 13.75 16H2.25A2.25 2.25 0 0 1 0 13.75v-9ZM1.5 7v6.75c0 .414.336.75.75.75h11.5a.75.75 0 0 0 .75-.75V7h-13ZM4 0a1 1 0 0 1 1 1v1.5H3V1a1 1 0 0 1 1-1Zm8 0a1 1 0 0 1 1 1v1.5h-2V1a1 1 0 0 1 1-1Z"/><path fill-rule="evenodd" clip-rule="evenodd" d="M7.25 10V7h1.5v3h5.75v1.5H8.75v3h-1.5v-3H1.5V10h5.75Z"/></g><defs><clipPath id="a"><path d="M0 0h16v16H0z"/></clipPath></defs></svg>
