<svg class="icon" width="16" height="16" viewBox="0 0 16 16" xmlns="http://www.w3.org/2000/svg" fill="currentColor"><g clip-path="url(#a)"><path fill-rule="evenodd" clip-rule="evenodd" d="M12 14.5a2.5 2.5 0 1 0 0-5 2.5 2.5 0 0 0 0 5Zm0 1.5a4 4 0 1 0 0-8 4 4 0 0 0 0 8Z"/><path fill-rule="evenodd" clip-rule="evenodd" d="M12 10a.5.5 0 0 1 .5.5v1.261l.686.275a.5.5 0 1 1-.372.928l-1.314-.526V10.5a.5.5 0 0 1 .5-.5Z"/><path d="M0 4.75A2.25 2.25 0 0 1 2.25 2.5H3V1a1 1 0 0 1 2 0v1.5h6V1a1 1 0 1 1 2 0v1.5h.75A2.25 2.25 0 0 1 16 4.75V7H1.5v6.75c0 .414.336.75.75.75H7A.75.75 0 0 1 7 16H2.25A2.25 2.25 0 0 1 0 13.75v-9Z"/></g><defs><clipPath id="a"><path d="M0 0h16v16H0z"/></clipPath></defs></svg>
