<svg class="icon" width="16" height="16" viewBox="0 0 16 16" fill="currentColor"><path d="M.25 2.1c0-.47.38-.85.85-.85H7v1.5H1.75v10.498H7v1.5H1.1a.85.85 0 0 1-.85-.85V2.1Zm14 .65H9v-1.5h5.9c.47 0 .85.38.85.85v11.798c0 .47-.38.85-.85.85H9v-1.5h5.25V2.75Z"/><path d="M9.75 8a1.75 1.75 0 1 1-3.5 0 1.75 1.75 0 0 1 3.5 0Z"/><path d="M5.684 6.517c-.18.28-.468.49-.8.49-.518 0-.902-.491-.664-.953a4.25 4.25 0 0 1 7.56 0c.238.462-.146.953-.665.953-.331 0-.62-.21-.799-.49A2.748 2.748 0 0 0 8 5.25c-.973 0-1.827.505-2.316 1.267Zm-.792 2.49c.33 0 .618.209.798.486A2.748 2.748 0 0 0 8 10.75c.968 0 1.82-.5 2.31-1.257.18-.277.467-.486.797-.486.521 0 .905.493.664.955a4.25 4.25 0 0 1-7.542 0c-.24-.462.143-.955.663-.955Z"/></svg>
