<svg class="icon" width="16" height="16" viewBox="0 0 16 16" xmlns="http://www.w3.org/2000/svg" fill="currentColor"><g clip-path="url(#a)"><path d="M6.343 2.288h2.054c.208 0 .359.199.302.4L7.664 6.37h2.943c.212 0 .363.206.3.408l-.98 3.162h1.25c.285 0 .424.348.217.543l-3.641 3.44a.315.315 0 0 1-.498-.09l-1.684-3.44a.315.315 0 0 1 .283-.453H7.44l.47-2.005H4.82a.315.315 0 0 1-.3-.406l1.521-5.02a.315.315 0 0 1 .301-.222Z"/><path fill-rule="evenodd" clip-rule="evenodd" d="M8 1.5a6.5 6.5 0 1 0 0 13 6.5 6.5 0 0 0 0-13ZM0 8a8 8 0 1 1 16 0A8 8 0 0 1 0 8Z"/><path d="m10.734 11.795 1.301 1.301c.393-.312.75-.668 1.061-1.06l-1.277-1.277a.875.875 0 0 1-.082.089l-1.003.947ZM5.067 4.006 3.965 2.904a6.54 6.54 0 0 0-1.061 1.06l1.67 1.67.493-1.628Z"/></g><defs><clipPath id="a"><path d="M0 0h16v16H0z"/></clipPath></defs></svg>
