<svg class="icon" width="16" height="16" viewBox="0 0 16 16" fill="currentColor"><path fill-rule="evenodd" clip-rule="evenodd" d="M8 4.25a.75.75 0 0 1 .75.75v3.536l1.585.793a.75.75 0 1 1-.67 1.342L7.25 9.464V5A.75.75 0 0 1 8 4.25Z"/><path d="M1.854 1.354A.5.5 0 0 0 1 1.707V6a.5.5 0 0 0 .5.5h4.293a.5.5 0 0 0 .353-.854L1.854 1.354Z"/><path fill-rule="evenodd" clip-rule="evenodd" d="M10.105 2.919A5.5 5.5 0 0 0 4.11 4.11a.75.75 0 0 1-1.06-1.06 7 7 0 1 1 0 9.899.75.75 0 1 1 1.06-1.06 5.5 5.5 0 1 0 5.994-8.971Z"/></svg>
