<svg class="icon" width="16" height="16" viewBox="0 0 16 16" fill="currentColor"><path fill-rule="evenodd" clip-rule="evenodd" d="M8 4.25a.75.75 0 0 0-.75.75v3.536l-1.585.793a.75.75 0 1 0 .67 1.342L8.75 9.464V5A.75.75 0 0 0 8 4.25Z"/><path d="M9.854 5.646a.5.5 0 0 0 .353.854H14.5A.5.5 0 0 0 15 6V1.707a.5.5 0 0 0-.854-.353L9.854 5.646Z"/><path fill-rule="evenodd" clip-rule="evenodd" d="M5.321 1.533A7 7 0 0 1 12.95 3.05a.75.75 0 0 1-1.06 1.06 5.5 5.5 0 1 0 0 7.78.75.75 0 1 1 1.06 1.06A7 7 0 1 1 5.32 1.533Z"/></svg>
