<svg xmlns="http://www.w3.org/2000/svg" class="icon" width="16" height="16" fill="currentColor" viewBox="0 0 16 16"><path fill-rule="evenodd" d="M7.442 4.25c-2.129 0-3.711 1.53-3.711 3.25 0 .275.039.542.112.796a.75.75 0 01-.763.957 1.772 1.772 0 00-.1-.003c-.896 0-1.48.635-1.48 1.25s.584 1.25 1.48 1.25a.75.75 0 010 1.5C1.415 13.25 0 12.094 0 10.5c0-1.338.996-2.368 2.244-2.664A4.394 4.394 0 012.23 7.5c0-2.698 2.412-4.75 5.211-4.75 2.168 0 4.084 1.218 4.855 3.017C14.31 5.947 16 7.484 16 9.5c0 1.695-1.208 3.064-2.777 3.552a.75.75 0 01-.446-1.433c1.05-.326 1.723-1.188 1.723-2.119 0-1.168-1.083-2.25-2.596-2.25-.038 0-.075 0-.112.002a.75.75 0 01-.749-.543c-.391-1.367-1.815-2.459-3.6-2.459z" clip-rule="evenodd"/><path d="M11.146 11.854a.5.5 0 00-.353-.854H5.207a.5.5 0 00-.353.854l2.792 2.792a.5.5 0 00.708 0l2.792-2.792z"/><path fill-rule="evenodd" d="M8 6.25a.75.75 0 01.75.75v4a.75.75 0 01-1.5 0V7A.75.75 0 018 6.25z" clip-rule="evenodd"/></svg>
