<svg class="icon" width="16" height="16" viewBox="0 0 16 16" fill="currentColor"><g clip-path="url(#code__a)"><path fill-rule="evenodd" clip-rule="evenodd" d="M9.656.266a.75.75 0 0 1 .578.89L7.323 14.85a.75.75 0 1 1-1.467-.312L8.766.844a.75.75 0 0 1 .89-.578ZM4.45 3.4a.75.75 0 0 1 .15 1.05L1.938 8 4.6 11.55a.75.75 0 1 1-1.2.9l-3-4a.75.75 0 0 1 0-.9l3-4a.75.75 0 0 1 1.05-.15Zm7.1 0a.75.75 0 0 1 1.05.15l3 4c.2.267.2.633 0 .9l-3 4a.75.75 0 1 1-1.2-.9L14.062 8 11.4 4.45a.75.75 0 0 1 .15-1.05Z"/></g><defs><clipPath id="code__a"><path d="M0 0h16v16H0z"/></clipPath></defs></svg>
