<svg class="icon" width="16" height="16" viewBox="0 0 16 16" fill="currentColor"><g clip-path="url(#eye-slash__a)"><path fill-rule="evenodd" clip-rule="evenodd" d="M15.53 1.53A.75.75 0 0 0 14.47.47l-14 14a.75.75 0 1 0 1.06 1.06l2.7-2.7a8.18 8.18 0 0 0 3.77.92c3.497 0 6.48-2.207 7.89-5.343a.993.993 0 0 0 0-.814 9.39 9.39 0 0 0-2.823-3.6L15.53 1.53Zm-3.535 3.535-1.41 1.411a3 3 0 0 1-4.109 4.109l-1.12 1.12A6.676 6.676 0 0 0 8 12.25c2.757 0 5.19-1.696 6.425-4.25a7.81 7.81 0 0 0-2.43-2.935ZM7.611 9.45A1.502 1.502 0 0 0 9.45 7.611L7.611 9.45Z"/><path d="M8 2.25a8.16 8.16 0 0 1 2.186.297L8.919 3.813A6.666 6.666 0 0 0 8 3.75C5.243 3.75 2.81 5.446 1.575 8c.339.7.767 1.336 1.268 1.89l-1.061 1.06A9.554 9.554 0 0 1 .11 8.408a.993.993 0 0 1 0-.814C1.52 4.457 4.503 2.25 8 2.25Z"/></g><defs><clipPath id="eye-slash__a"><path d="M0 0h16v16H0z"/></clipPath></defs></svg>
