<svg class="icon" width="16" height="16" viewBox="0 0 16 16" fill="currentColor"><g fill-rule="evenodd" clip-rule="evenodd"><path d="M1.575 8C2.81 10.554 5.243 12.25 8 12.25c2.757 0 5.19-1.696 6.425-4.25C13.19 5.446 10.757 3.75 8 3.75 5.243 3.75 2.81 5.446 1.575 8ZM.11 7.593C1.52 4.457 4.503 2.25 8 2.25s6.48 2.207 7.89 5.343a.993.993 0 0 1 0 .814C14.48 11.543 11.497 13.75 8 13.75S1.52 11.543.11 8.407a.993.993 0 0 1 0-.814Z"/><path d="M8 9.5a1.5 1.5 0 1 0 0-3 1.5 1.5 0 0 0 0 3ZM8 11a3 3 0 1 0 0-6 3 3 0 0 0 0 6Z"/></g></svg>
