<svg xmlns="http://www.w3.org/2000/svg" class="icon" width="16" height="16" fill="currentColor" viewBox="0 0 16 16"><path fill-rule="evenodd" d="M3.5 14.5h9V3.621L10.379 1.5H3.5v13zm9 1.5h-9A1.5 1.5 0 012 14.5v-13A1.5 1.5 0 013.5 0h6.879a1.5 1.5 0 011.06.44l2.122 2.12A1.5 1.5 0 0114 3.622V14.5a1.5 1.5 0 01-1.5 1.5z" clip-rule="evenodd"/><path d="M4.5 6.5A.5.5 0 015 6h6a.5.5 0 01.5.5v4a.5.5 0 01-.5.5H5a.5.5 0 01-.5-.5v-4zM4.5 4.25a.75.75 0 01.75-.75h5.5a.75.75 0 010 1.5h-5.5a.75.75 0 01-.75-.75zM4.5 12.75a.75.75 0 01.75-.75h2.5a.75.75 0 010 1.5h-2.5a.75.75 0 01-.75-.75z"/></svg>
