<svg class="icon" width="16" height="16" viewBox="0 0 16 16" fill="currentColor"><g fill-rule="evenodd" clip-rule="evenodd"><path d="M4.25 7A.75.75 0 0 1 5 6.25h4a.75.75 0 0 1 0 1.5H5A.75.75 0 0 1 4.25 7Zm0 2.5A.75.75 0 0 1 5 8.75h5a.75.75 0 0 1 0 1.5H5a.75.75 0 0 1-.75-.75Zm0 2.5a.75.75 0 0 1 .75-.75h2a.75.75 0 0 1 0 1.5H5a.75.75 0 0 1-.75-.75Z"/><path d="M3.5 14.5h9V3.621L10.379 1.5H3.5v13Zm9 1.5h-9A1.5 1.5 0 0 1 2 14.5v-13A1.5 1.5 0 0 1 3.5 0h6.879a1.5 1.5 0 0 1 1.06.44l2.122 2.12A1.5 1.5 0 0 1 14 3.622V14.5a1.5 1.5 0 0 1-1.5 1.5Z"/></g></svg>
