<svg xmlns="http://www.w3.org/2000/svg" class="icon" width="16" height="16" fill="currentColor" viewBox="0 0 16 16"><path fill-rule="evenodd" d="M10.75 8a.75.75 0 01.75-.75h1c.69 0 1.25.56 1.25 1.25v3.75h.75a.75.75 0 010 1.5h-3a.75.75 0 010-1.5h.75v-3.5h-.75a.75.75 0 01-.75-.75zM5.25 8.5c0-.69.56-1.25 1.25-1.25h2c.69 0 1.25.56 1.25 1.25v4c0 .69-.56 1.25-1.25 1.25h-2c-.69 0-1.25-.56-1.25-1.25v-4zm1.5.25v3.5h1.5v-3.5h-1.5z" clip-rule="evenodd"/><path d="M12.5 15.25a.75.75 0 00-.75-.75H3.5v-13h6.879L12.5 3.621V5.25a.75.75 0 001.5 0V3.621a1.5 1.5 0 00-.44-1.06L11.44.439A1.5 1.5 0 0010.378 0H3.5A1.5 1.5 0 002 1.5v13A1.5 1.5 0 003.5 16h8.25a.75.75 0 00.75-.75z"/></svg>
