<svg class="icon" width="16" height="16" viewBox="0 0 16 16" xmlns="http://www.w3.org/2000/svg" fill="currentColor"><path fill-rule="evenodd" clip-rule="evenodd" d="M8.461 6.442a.748.748 0 0 0 .289.058h5a.75.75 0 0 0 0-1.5h-5a.749.749 0 0 0-.289 1.442ZM7 2a1 1 0 0 0-1-1H2a1 1 0 0 0-1 1v4a1 1 0 0 0 1 1h4a.997.997 0 0 0 1-1V2Zm1.5.043A.75.75 0 0 0 8.75 3.5h5a.75.75 0 0 0 0-1.5h-5a.749.749 0 0 0-.25.043Zm0 8a.75.75 0 0 0 .25 1.457h5a.75.75 0 0 0 0-1.5h-5a.747.747 0 0 0-.25.043ZM7 10a1 1 0 0 0-1-1H2a1 1 0 0 0-1 1v4a1 1 0 0 0 1 1h4a.997.997 0 0 0 1-1v-4Zm1.5 3.043a.75.75 0 0 0 .25 1.457h5a.75.75 0 0 0 0-1.5h-5a.747.747 0 0 0-.25.043ZM2.5 2.5v3h3v-3h-3Zm0 8v3h3v-3h-3Z"/></svg>
