<svg class="icon" width="16" height="16" viewBox="0 0 16 16" fill="currentColor"><path fill-rule="evenodd" clip-rule="evenodd" d="M3.5 14.5h9V3.621L10.379 1.5H3.5v13Zm9 1.5h-9A1.5 1.5 0 0 1 2 14.5v-13A1.5 1.5 0 0 1 3.5 0h6.879a1.5 1.5 0 0 1 1.06.44l2.122 2.12A1.5 1.5 0 0 1 14 3.622V14.5a1.5 1.5 0 0 1-1.5 1.5Z"/><path fill-rule="evenodd" clip-rule="evenodd" d="M3.909 9.305a1.75 1.75 0 0 1 2.864-.13l1.47 1.91a.25.25 0 0 0 .23.096l2.679-.356a1.75 1.75 0 0 1 1.524.557l1.063 1.168-1.11 1.01-1.062-1.168a.25.25 0 0 0-.218-.08l-2.678.356A1.75 1.75 0 0 1 7.054 12l-1.47-1.91a.25.25 0 0 0-.409.018l-1.857 2.927-1.267-.804L3.91 9.305Z"/><path d="M11.5 8.5a1.5 1.5 0 1 1-3 0 1.5 1.5 0 0 1 3 0Z"/></svg>
