<svg xmlns="http://www.w3.org/2000/svg" class="icon" width="16" height="16" fill="currentColor" viewBox="0 0 16 16"><path fill-rule="evenodd" d="M3.5 14.5h9V3.621L10.379 1.5H3.5v13zm9 1.5h-9A1.5 1.5 0 012 14.5v-13A1.5 1.5 0 013.5 0h6.879a1.5 1.5 0 011.06.44l2.122 2.12A1.5 1.5 0 0114 3.622V14.5a1.5 1.5 0 01-1.5 1.5z" clip-rule="evenodd"/><path fill-rule="evenodd" d="M8 4.25a.75.75 0 01.75.75v3.5a.75.75 0 01-1.5 0V5A.75.75 0 018 4.25z" clip-rule="evenodd"/><path d="M9 11.25a1 1 0 11-2 0 1 1 0 012 0z"/></svg>
