<svg xmlns="http://www.w3.org/2000/svg" class="icon" width="16" height="16" fill="currentColor" viewBox="0 0 16 16"><path d="M12.5 15.25a.75.75 0 00-.75-.75H3.5v-13h6.879L12.5 3.621v.629a.75.75 0 001.5 0v-.629a1.5 1.5 0 00-.44-1.06L11.44.439A1.5 1.5 0 0010.378 0H3.5A1.5 1.5 0 002 1.5v13A1.5 1.5 0 003.5 16h8.25a.75.75 0 00.75-.75z"/><path fill-rule="evenodd" d="M10.072 5.997a3.25 3.25 0 00-3.542.705.75.75 0 11-1.06-1.06 4.75 4.75 0 110 6.717.75.75 0 011.06-1.06 3.25 3.25 0 103.542-5.302z" clip-rule="evenodd"/><path d="M5.354 4.854a.5.5 0 00-.854.353V7.5A.5.5 0 005 8h2.293a.5.5 0 00.353-.854L5.354 4.854z"/><path fill-rule="evenodd" d="M9 6.75a.75.75 0 01.75.75v1.69l.78.78a.75.75 0 11-1.06 1.06L8.25 9.81V7.5A.75.75 0 019 6.75z" clip-rule="evenodd"/></svg>
