<svg class="icon" width="16" height="16" viewBox="0 0 16 16" fill="currentColor"><path fill-rule="evenodd" clip-rule="evenodd" d="M4.25 9.5A.75.75 0 0 1 5 8.75h5a.75.75 0 0 1 0 1.5H5a.75.75 0 0 1-.75-.75Zm0 2.5a.75.75 0 0 1 .75-.75h2a.75.75 0 0 1 0 1.5H5a.75.75 0 0 1-.75-.75Z"/><path fill-rule="evenodd" clip-rule="evenodd" d="M3.5 14.5h9V3.621L10.379 1.5H3.5v13Zm9 1.5h-9A1.5 1.5 0 0 1 2 14.5v-13A1.5 1.5 0 0 1 3.5 0h6.879a1.5 1.5 0 0 1 1.06.44l2.122 2.12A1.5 1.5 0 0 1 14 3.622V14.5a1.5 1.5 0 0 1-1.5 1.5Z"/><path d="M5.45 7.864a.25.25 0 0 0 .239-.175l.232-.742h1.507l.232.742a.25.25 0 0 0 .239.175H8.5a.25.25 0 0 0 .236-.33L7.434 3.67a.25.25 0 0 0-.237-.17H6.152a.25.25 0 0 0-.237.17L4.61 7.534a.25.25 0 0 0 .237.33h.602Zm.723-1.718L6.656 4.6h.034l.486 1.547H6.173Z"/></svg>
