<svg class="icon" width="16" height="16" viewBox="0 0 16 16" xmlns="http://www.w3.org/2000/svg" fill="currentColor"><path d="M9 2.5a.5.5 0 0 0-.5-.5h-1a.5.5 0 0 0-.5.5v1H5.5A.5.5 0 0 0 5 4v.5a.5.5 0 0 0 .5.5H7v1.5H5.5A.5.5 0 0 0 5 7v.5a.5.5 0 0 0 .5.5H7v1a.5.5 0 0 0 .5.5h1A.5.5 0 0 0 9 9v-.5a.5.5 0 0 0-.5-.5H7V6.5h1.5A.5.5 0 0 0 9 6v-.5a.5.5 0 0 0-.5-.5H7V3.5h1.5A.5.5 0 0 0 9 3v-.5ZM7.86 13a.5.5 0 0 0 .485-.621l-.5-2A.5.5 0 0 0 7.36 10h-.72a.5.5 0 0 0-.485.379l-.5 2A.5.5 0 0 0 6.14 13h1.72Z"/><path fill-rule="evenodd" clip-rule="evenodd" d="M3.5 14.5h9V3.621L10.379 1.5H3.5v13Zm9 1.5h-9A1.5 1.5 0 0 1 2 14.5v-13A1.5 1.5 0 0 1 3.5 0h6.879a1.5 1.5 0 0 1 1.06.44l2.122 2.12A1.5 1.5 0 0 1 14 3.622V14.5a1.5 1.5 0 0 1-1.5 1.5Z"/></svg>
