<svg xmlns="http://www.w3.org/2000/svg" class="icon" width="16" height="16" fill="currentColor" viewBox="0 0 16 16"><path d="M4.945 13c-.32 0-.561-.162-.722-.405-.16-.244-.48-.73.16-1.46.402-.486 1.364-.973 2.407-1.297.32-.649.561-1.297.802-2.027-.562-1.054-.882-2.19-.802-2.838C6.87 4.324 7.27 4 7.832 4c.562 0 .883.324 1.043.892.16.649 0 1.703-.401 2.919.24.486.561.973.882 1.46.963-.082 1.765-.082 2.246.243.4.243.48.648.32 1.135-.24.567-.721.81-1.283.648-.48-.162-1.042-.567-1.604-1.216-.561.081-1.122.243-1.684.405-.641 1.136-1.283 2.109-1.925 2.352-.16.08-.32.162-.48.162zm1.203-2.027c-.641.324-1.123.649-1.283.892-.08.08-.08.162 0 .243.08.081.08.081.16.081.321-.162.722-.649 1.123-1.216zM9.998 10c.32.324.561.486.802.568.08 0 .24.08.32-.244v-.162S10.88 10 10.32 10h-.321zM8.073 8.784c-.08.243-.16.486-.32.73.24-.082.48-.082.721-.163-.16-.162-.24-.324-.401-.567zm-.24-3.973c-.08 0-.241 0-.241.324-.08.406.08.973.32 1.54.161-.648.241-1.216.161-1.54-.08-.324-.16-.324-.24-.324z"/><path fill-rule="evenodd" d="M3.5 14.5h9V3.621L10.379 1.5H3.5v13zm9 1.5h-9A1.5 1.5 0 012 14.5v-13A1.5 1.5 0 013.5 0h6.879a1.5 1.5 0 011.06.44l2.122 2.12A1.5 1.5 0 0114 3.622V14.5a1.5 1.5 0 01-1.5 1.5z" clip-rule="evenodd"/></svg>
