<svg class="icon" width="16" height="16" viewBox="0 0 16 16" fill="currentColor"><g fill-rule="evenodd" clip-rule="evenodd"><path d="M2.25 9A.75.75 0 0 1 3 8.25h10a.75.75 0 0 1 0 1.5h-2.25v1.5h2.249L13 12v.75h-2.25v2.249L10 15h-.75v-2.25h-2.5V15a.75.75 0 0 1-1.5 0v-2.25H3a.75.75 0 0 1 0-1.5h2.25v-1.5H3A.75.75 0 0 1 2.25 9Zm4.5.75v1.5h2.5v-1.5h-2.5ZM10 15h-.75a.75.75 0 0 0 1.5 0H10Zm3-3v.75a.75.75 0 0 0 0-1.5V12Z"/><path d="M3.5 14.5h9V3.621L10.379 1.5H3.5v13Zm9 1.5h-9A1.5 1.5 0 0 1 2 14.5v-13A1.5 1.5 0 0 1 3.5 0h6.879a1.5 1.5 0 0 1 1.06.44l2.122 2.12A1.5 1.5 0 0 1 14 3.622V14.5a1.5 1.5 0 0 1-1.5 1.5Z"/></g></svg>
