<svg class="icon" width="16" height="16" viewBox="0 0 16 16" xmlns="http://www.w3.org/2000/svg" fill="currentColor"><path fill-rule="evenodd" clip-rule="evenodd" d="M3.5 14.5h9V3.621L10.379 1.5H3.5v13Zm9 1.5h-9A1.5 1.5 0 0 1 2 14.5v-13A1.5 1.5 0 0 1 3.5 0h6.879a1.5 1.5 0 0 1 1.06.44l2.122 2.12A1.5 1.5 0 0 1 14 3.622V14.5a1.5 1.5 0 0 1-1.5 1.5Z"/><path d="M4.5 6.5A.5.5 0 0 1 5 6h6a.5.5 0 0 1 .5.5v4a.5.5 0 0 1-.5.5H5a.5.5 0 0 1-.5-.5v-4Zm0-2.25a.75.75 0 0 1 .75-.75h5.5a.75.75 0 0 1 0 1.5h-5.5a.75.75 0 0 1-.75-.75Zm0 8.5a.75.75 0 0 1 .75-.75h2.5a.75.75 0 0 1 0 1.5h-2.5a.75.75 0 0 1-.75-.75Z"/></svg>
