<svg class="icon" width="16" height="16" viewBox="0 0 16 16" xmlns="http://www.w3.org/2000/svg" fill="currentColor"><path d="M12.5 15.25a.75.75 0 0 0-.75-.75H3.5v-13h6.879L12.5 3.621v.629a.75.75 0 0 0 1.5 0v-.629a1.5 1.5 0 0 0-.44-1.06L11.44.439A1.5 1.5 0 0 0 10.378 0H3.5A1.5 1.5 0 0 0 2 1.5v13A1.5 1.5 0 0 0 3.5 16h8.25a.75.75 0 0 0 .75-.75Z"/><path fill-rule="evenodd" clip-rule="evenodd" d="M10.072 5.997a3.25 3.25 0 0 0-3.542.705.75.75 0 1 1-1.06-1.06 4.75 4.75 0 1 1 0 6.717.75.75 0 0 1 1.06-1.06 3.25 3.25 0 1 0 3.542-5.302Z"/><path d="M5.354 4.854a.5.5 0 0 0-.854.353V7.5A.5.5 0 0 0 5 8h2.293a.5.5 0 0 0 .353-.854L5.354 4.854Z"/><path fill-rule="evenodd" clip-rule="evenodd" d="M9 6.75a.75.75 0 0 1 .75.75v1.69l.78.78a.75.75 0 1 1-1.06 1.06L8.25 9.81V7.5A.75.75 0 0 1 9 6.75Z"/></svg>
