<svg xmlns="http://www.w3.org/2000/svg" class="icon" width="16" height="16" fill="currentColor" viewBox="0 0 16 16"><path d="M12 10a4 4 0 11-4-4v4h4z"/><path d="M12 9.333A3.334 3.334 0 008.667 6v3.333H12z"/><path fill-rule="evenodd" d="M4.25 4.5A.75.75 0 015 3.75h6a.75.75 0 010 1.5H5a.75.75 0 01-.75-.75z" clip-rule="evenodd"/><path fill-rule="evenodd" d="M3.5 14.5h9V3.621L10.379 1.5H3.5v13zm9 1.5h-9A1.5 1.5 0 012 14.5v-13A1.5 1.5 0 013.5 0h6.879a1.5 1.5 0 011.06.44l2.122 2.12A1.5 1.5 0 0114 3.622V14.5a1.5 1.5 0 01-1.5 1.5z" clip-rule="evenodd"/></svg>
