<svg class="icon" width="16" height="16" viewBox="0 0 16 16" fill="currentColor"><g fill-rule="evenodd" clip-rule="evenodd" clip-path="url(#globe__a)"><path d="M8 1.5a6.5 6.5 0 1 0 0 13 6.5 6.5 0 0 0 0-13ZM0 8a8 8 0 1 1 16 0A8 8 0 0 1 0 8Z"/><path d="M7.003 3.11c-.406 1.217-.67 2.946-.67 4.89 0 1.944.264 3.673.67 4.89.204.612.43 1.053.645 1.326.222.281.347.284.352.284.005 0 .13-.003.352-.284.215-.273.441-.714.645-1.327.406-1.216.67-2.945.67-4.889 0-1.944-.264-3.673-.67-4.89-.204-.612-.43-1.053-.645-1.326C8.13 1.503 8.005 1.5 8 1.5c-.005 0-.13.003-.352.284-.215.273-.441.714-.645 1.327ZM6.47.857C6.827.403 7.338 0 8 0s1.173.403 1.53.856c.363.46.657 1.08.89 1.78.47 1.407.747 3.304.747 5.364s-.278 3.957-.747 5.364c-.233.7-.527 1.32-.89 1.78-.357.453-.868.856-1.53.856s-1.173-.403-1.53-.855c-.363-.461-.657-1.082-.89-1.781-.47-1.408-.747-3.304-.747-5.364s.278-3.957.747-5.364c.233-.7.527-1.32.89-1.78Z"/><path d="M12.89 7.003c-1.217-.406-2.946-.67-4.89-.67-1.944 0-3.673.264-4.89.67-.612.204-1.053.43-1.326.645-.281.222-.284.347-.284.352 0 .005.003.13.284.352.273.215.714.441 1.327.645 1.216.406 2.945.67 4.889.67 1.944 0 3.673-.264 4.89-.67.612-.204 1.053-.43 1.326-.645.281-.222.284-.347.284-.352 0-.005-.003-.13-.284-.352-.273-.215-.714-.441-1.327-.645Zm2.255-.533c.452.357.855.868.855 1.53s-.403 1.173-.855 1.53c-.461.363-1.082.657-1.781.89-1.408.47-3.304.747-5.364.747s-3.957-.278-5.364-.747c-.7-.233-1.32-.527-1.78-.89C.403 9.173 0 8.662 0 8s.403-1.173.856-1.53c.46-.363 1.08-.657 1.78-.89C4.043 5.11 5.94 4.833 8 4.833s3.957.278 5.364.747c.7.233 1.32.527 1.78.89Z"/></g><defs><clipPath id="globe__a"><path d="M0 0h16v16H0z"/></clipPath></defs></svg>
