<svg xmlns="http://www.w3.org/2000/svg" class="icon" width="16" height="16" fill="currentColor" viewBox="0 0 16 16"><path fill-rule="evenodd" d="M8.416 3.179a.75.75 0 00-.832 0l-4.5 3a.75.75 0 00-.334.624v6.447h3V9.871l.043-.12C6.117 8.832 7.067 8.25 8 8.25c.933 0 1.883.583 2.207 1.5l.043.121v3.379h3V6.803a.75.75 0 00-.334-.624l-4.5-3zM6.752 1.93a2.25 2.25 0 012.496 0l4.5 3a2.25 2.25 0 011.002 1.872v7.947h-6v-4.591A.903.903 0 008 9.75a.903.903 0 00-.75.409v4.591h-6V6.803A2.25 2.25 0 012.252 4.93l4.5-3z" clip-rule="evenodd"/></svg>
