<svg class="icon" width="16" height="16" viewBox="0 0 16 16" xmlns="http://www.w3.org/2000/svg" fill="currentColor"><path fill-rule="evenodd" clip-rule="evenodd" d="M14.5 3.5h-13v9h13v-9ZM1.5 2A1.5 1.5 0 0 0 0 3.5v9A1.5 1.5 0 0 0 1.5 14h13a1.5 1.5 0 0 0 1.5-1.5v-9A1.5 1.5 0 0 0 14.5 2h-13Z"/><path fill-rule="evenodd" clip-rule="evenodd" d="M5.584 8.09a.25.25 0 0 0-.409.018l-3.444 5.427-1.266-.804 3.444-5.426a1.75 1.75 0 0 1 2.864-.13l1.47 1.91a.25.25 0 0 0 .23.096l2.679-.356a1.75 1.75 0 0 1 1.524.557l2.883 3.168-1.109 1.01-2.883-3.168a.25.25 0 0 0-.218-.08l-2.678.356A1.75 1.75 0 0 1 7.054 10l-1.47-1.91Z"/><path d="M11.5 6.5a1.5 1.5 0 1 1-3 0 1.5 1.5 0 0 1 3 0Z"/></svg>
