<svg xmlns="http://www.w3.org/2000/svg" class="icon" width="16" height="16" fill="currentColor" viewBox="0 0 16 16"><path fill-rule="evenodd" d="M14.5 3.5h-13v9h13v-9zM1.5 2A1.5 1.5 0 000 3.5v9A1.5 1.5 0 001.5 14h13a1.5 1.5 0 001.5-1.5v-9A1.5 1.5 0 0014.5 2h-13z" clip-rule="evenodd"/><path fill-rule="evenodd" d="M5.584 8.09a.25.25 0 00-.409.018l-3.444 5.427-1.266-.804 3.444-5.426a1.75 1.75 0 012.864-.13l1.47 1.91a.25.25 0 00.23.096l2.679-.356a1.75 1.75 0 011.524.557l2.883 3.168-1.109 1.01-2.883-3.168a.25.25 0 00-.218-.08l-2.678.356A1.75 1.75 0 017.054 10l-1.47-1.91z" clip-rule="evenodd"/><path d="M11.5 6.5a1.5 1.5 0 11-3 0 1.5 1.5 0 013 0z"/></svg>
