<svg class="icon" width="16" height="16" viewBox="0 0 16 16" xmlns="http://www.w3.org/2000/svg" fill="currentColor"><path fill-rule="evenodd" clip-rule="evenodd" d="M6.5 11.5c0 .414.336.75.75.75h2a.75.75 0 0 0 0-1.5H9v-3a1 1 0 0 0-1-1h-.75a.75.75 0 0 0 0 1.5h.25v2.5h-.25a.75.75 0 0 0-.75.75Z"/><path d="M9 5a1 1 0 1 0-2 0 1 1 0 0 0 2 0Z"/><path fill-rule="evenodd" clip-rule="evenodd" d="M13.5 2.5h-11v11h11v-11ZM2.5 1A1.5 1.5 0 0 0 1 2.5v11A1.5 1.5 0 0 0 2.5 15h11a1.5 1.5 0 0 0 1.5-1.5v-11A1.5 1.5 0 0 0 13.5 1h-11Z"/></svg>
