<svg class="icon" width="16" height="16" viewBox="0 0 16 16" xmlns="http://www.w3.org/2000/svg" fill="currentColor"><g clip-path="url(#a)"><path fill-rule="evenodd" clip-rule="evenodd" d="M8 1.5a6.5 6.5 0 1 0 0 13 6.5 6.5 0 0 0 0-13ZM0 8a8 8 0 1 1 16 0A8 8 0 0 1 0 8Z"/><path fill-rule="evenodd" clip-rule="evenodd" d="M6.5 11.5c0 .414.336.75.75.75h2a.75.75 0 0 0 0-1.5H9v-3a1 1 0 0 0-1-1h-.75a.75.75 0 0 0 0 1.5h.25v2.5h-.25a.75.75 0 0 0-.75.75Z"/><path d="M9 5a1 1 0 1 0-2 0 1 1 0 0 0 2 0Z"/></g><defs><clipPath id="a"><path d="M0 0h16v16H0z"/></clipPath></defs></svg>
