<svg class="icon" width="16" height="16" viewBox="0 0 16 16" fill="currentColor"><path d="M3.333 12.49a1.975 1.975 0 0 1 0-2.793l.884-.884a.775.775 0 1 0-1.096-1.096l-.884.884a3.525 3.525 0 1 0 4.985 4.985l2.298-2.298a3.525 3.525 0 0 0 0-4.985.775.775 0 1 0-1.096 1.096 1.975 1.975 0 0 1 0 2.793L6.126 12.49a1.975 1.975 0 0 1-2.793 0Z"/><path d="M6.48 4.712a3.525 3.525 0 0 0 0 4.985.775.775 0 0 0 1.096-1.096 1.975 1.975 0 0 1 0-2.793L9.874 3.51a1.975 1.975 0 0 1 2.793 2.793l-.884.884a.775.775 0 1 0 1.096 1.096l.884-.884a3.525 3.525 0 1 0-4.985-4.985L6.48 4.712Z"/></svg>
