<svg xmlns="http://www.w3.org/2000/svg" class="icon" width="16" height="16" fill="currentColor" viewBox="0 0 16 16"><path fill-rule="evenodd" d="M5.25 3A.75.75 0 016 2.25h8a.75.75 0 010 1.5H6A.75.75 0 015.25 3zm0 5A.75.75 0 016 7.25h8a.75.75 0 010 1.5H6A.75.75 0 015.25 8zm0 5a.75.75 0 01.75-.75h8a.75.75 0 010 1.5H6a.75.75 0 01-.75-.75z" clip-rule="evenodd"/><path d="M1.54 5v-.894h.942v-2.13l-.714.408-.402-.798L2.806.77h.774v3.336h.882V5H1.54zM1.414 10v-.81l1.272-1.332c.156-.168.266-.312.33-.432a.725.725 0 00.102-.36c0-.304-.194-.456-.582-.456-.16 0-.324.03-.492.09-.164.06-.328.152-.492.276l-.342-.804c.184-.144.406-.258.666-.342.264-.084.536-.126.816-.126.488 0 .86.106 1.116.318.26.212.39.518.39.918 0 .256-.058.502-.174.738-.116.232-.31.48-.582.744l-.684.684h1.596V10h-2.94zM2.674 15.066c-.3 0-.588-.04-.864-.12a1.886 1.886 0 01-.66-.33l.336-.822c.348.244.73.366 1.146.366.432 0 .648-.148.648-.444 0-.272-.192-.408-.576-.408h-.738v-.876h.63c.172 0 .306-.036.402-.108a.36.36 0 00.15-.312c0-.268-.186-.402-.558-.402-.38 0-.724.122-1.032.366l-.342-.804c.18-.148.4-.262.66-.342.264-.084.538-.126.822-.126.472 0 .84.104 1.104.312.264.204.396.488.396.852 0 .216-.054.406-.162.57a.936.936 0 01-.45.36.977.977 0 01.546.372c.132.18.198.398.198.654 0 .384-.148.688-.444.912-.292.22-.696.33-1.212.33z"/></svg>
