<svg class="icon" width="16" height="16" viewBox="0 0 16 16" fill="currentColor"><path d="M3.8 2a.625.625 0 0 0-1.015-.488l-1.25 1a.625.625 0 1 0 .781.976l.234-.187V6A.625.625 0 0 0 3.8 6V2ZM2.618 8.375c-.684 0-1.166.338-1.456.64a2.474 2.474 0 0 0-.421.602l-.007.015-.003.006-.001.003c0 .001-.001.002.57.255l-.57-.253a.625.625 0 0 0 1.14.511l.006-.01a1.222 1.222 0 0 1 .19-.264.745.745 0 0 1 .553-.255.531.531 0 0 1 .167.068c.088.057.16.134.202.216a.399.399 0 0 1 .032.277c-.026.122-.11.314-.35.563a.624.624 0 0 0-.03.033L1.122 12.6a.625.625 0 0 0 .48 1.025H3.8a.625.625 0 1 0 0-1.25h-.862l.647-.776c.348-.366.57-.752.656-1.15.088-.41.021-.79-.14-1.106a1.822 1.822 0 0 0-.644-.704 1.598 1.598 0 0 0-.84-.264ZM5 2.75A.75.75 0 0 1 5.75 2h8.501a.75.75 0 0 1 0 1.5H5.75A.75.75 0 0 1 5 2.75Zm0 7A.75.75 0 0 1 5.75 9h8.501a.75.75 0 0 1 0 1.5H5.75A.75.75 0 0 1 5 9.75ZM5.75 5a.75.75 0 1 0 0 1.5h7.438a.75.75 0 0 0 0-1.5H5.75ZM5 12.75a.75.75 0 0 1 .75-.75h7.438a.75.75 0 0 1 0 1.5H5.75a.75.75 0 0 1-.75-.75Z"/></svg>
