<svg class="icon" width="16" height="16" viewBox="0 0 16 16" xmlns="http://www.w3.org/2000/svg" fill="currentColor"><path fill-rule="evenodd" clip-rule="evenodd" d="M0 4.5A.5.5 0 0 1 .5 4h1.295a.5.5 0 0 1 .468.324L4 8.954l1.737-4.63A.5.5 0 0 1 6.205 4H7.5a.5.5 0 0 1 .5.5v7a.5.5 0 0 1-.5.5h-.684a.5.5 0 0 1-.5-.5V7.086L4.658 11.62a.5.5 0 0 1-.47.328h-.376a.5.5 0 0 1-.47-.329L1.684 7.06v4.44a.5.5 0 0 1-.5.5H.5a.5.5 0 0 1-.5-.5v-7Zm11.66 0a.5.5 0 0 1 .5-.5h1a.5.5 0 0 1 .5.5V8h1.793a.5.5 0 0 1 .353.854l-2.792 2.792a.5.5 0 0 1-.708 0L9.514 8.854A.5.5 0 0 1 9.867 8h1.793V4.5Z"/></svg>
