<svg class="icon" width="16" height="16" viewBox="0 0 16 16" fill="currentColor"><path fill-rule="evenodd" clip-rule="evenodd" d="M0 12.5A1.5 1.5 0 0 0 1.5 14h13a1.5 1.5 0 0 0 1.5-1.5v-9A1.5 1.5 0 0 0 14.5 2h-13A1.5 1.5 0 0 0 0 3.5v9Zm2.75 0v-2H1.5v2h1.25Zm0-6v3H1.5v-3h1.25Zm11.75 0v3h-1.25v-3h1.25Zm0 4h-1.25v2h1.25v-2Zm0-5h-1.25v-2h1.25v2Zm-11.75 0H1.5v-2h1.25v2Zm8.074 7H5.176a1 1 0 0 1-.926-.997v-7a1 1 0 0 1 1-1h5.5a1 1 0 0 1 1 1v7a1 1 0 0 1-.926.997Z"/><path d="M7.3 5.6a.5.5 0 0 0-.8.4v4a.5.5 0 0 0 .8.4l2.667-2a.5.5 0 0 0 0-.8L7.3 5.6Z"/></svg>
