<svg xmlns="http://www.w3.org/2000/svg" class="icon" width="16" height="16" fill="currentColor" viewBox="0 0 16 16"><path fill-rule="evenodd" d="M0 12.5A1.5 1.5 0 001.5 14h13a1.5 1.5 0 001.5-1.5v-9A1.5 1.5 0 0014.5 2h-13A1.5 1.5 0 000 3.5v9zm2.75 0v-2H1.5v2h1.25zm0-6v3H1.5v-3h1.25zm11.75 0v3h-1.25v-3h1.25zm0 4h-1.25v2h1.25v-2zm0-5h-1.25v-2h1.25v2zm-11.75 0H1.5v-2h1.25v2zm8.074 7H5.176a1 1 0 01-.926-.997v-7a1 1 0 011-1h5.5a1 1 0 011 1v7a1 1 0 01-.926.997z" clip-rule="evenodd"/><path d="M7.3 5.6a.5.5 0 00-.8.4v4a.5.5 0 00.8.4l2.667-2a.5.5 0 000-.8L7.3 5.6z"/></svg>
