<svg class="icon" width="16" height="16" viewBox="0 0 16 16" xmlns="http://www.w3.org/2000/svg" fill="currentColor"><g clip-path="url(#a)"><path fill-rule="evenodd" clip-rule="evenodd" d="M5.308 1.5 1.5 5.308v5.384L5.308 14.5h5.384l3.808-3.808V5.308L10.692 1.5H5.308ZM4.997 0h6.006a.75.75 0 0 1 .53.22l4.247 4.247c.141.14.22.331.22.53v6.006a.75.75 0 0 1-.22.53l-4.247 4.247a.75.75 0 0 1-.53.22H4.997a.75.75 0 0 1-.53-.22L.22 11.533a.75.75 0 0 1-.22-.53V4.997a.75.75 0 0 1 .22-.53L4.467.22a.75.75 0 0 1 .53-.22Z"/></g><defs><clipPath id="a"><path d="M0 0h16v16H0z"/></clipPath></defs></svg>
