<svg class="icon" width="16" height="16" viewBox="0 0 16 16" fill="currentColor"><path d="M3.5 1.5h9v1.75a.75.75 0 0 0 1.5 0V1.5A1.5 1.5 0 0 0 12.5 0h-9A1.5 1.5 0 0 0 2 1.5v13A1.5 1.5 0 0 0 3.5 16h7.75a.75.75 0 0 0 0-1.5H3.5v-13Z"/><path d="M4.531 4.25a.75.75 0 0 1 .75-.75h4a.75.75 0 0 1 0 1.5h-4a.75.75 0 0 1-.75-.75ZM13.7 5.254a.868.868 0 0 1 1.227 0l.819.819a.869.869 0 0 1 0 1.228l-5.377 5.376a.579.579 0 0 1-.357.168l-1.696.154A.29.29 0 0 1 8 12.684l.154-1.696a.579.579 0 0 1 .168-.357l5.376-5.377ZM5.281 6a.75.75 0 1 0 0 1.5h5a.75.75 0 0 0 0-1.5h-5Zm-.75 3.25a.75.75 0 0 1 .75-.75H7.78a.75.75 0 1 1 0 1.5h-2.5a.75.75 0 0 1-.75-.75Zm.75 1.75a.75.75 0 0 0 0 1.5h1a.75.75 0 0 0 0-1.5h-1Z"/></svg>
