<svg class="icon" width="16" height="16" viewBox="0 0 16 16" fill="currentColor"><path fill-rule="evenodd" clip-rule="evenodd" d="M12.5 1.5h-9v13h9v-13ZM3.5 0A1.5 1.5 0 0 0 2 1.5v13A1.5 1.5 0 0 0 3.5 16h9a1.5 1.5 0 0 0 1.5-1.5v-13A1.5 1.5 0 0 0 12.5 0h-9Z"/><path d="M11 6H5a.5.5 0 0 0-.5.5v2A.5.5 0 0 0 5 9h6a.5.5 0 0 0 .5-.5v-2A.5.5 0 0 0 11 6Zm-6 7h6a.5.5 0 0 0 .5-.5v-2a.5.5 0 0 0-.5-.5H5a.5.5 0 0 0-.5.5v2a.5.5 0 0 0 .5.5Zm-.5-8.75a.75.75 0 0 1 .75-.75h2.5a.75.75 0 0 1 0 1.5h-2.5a.75.75 0 0 1-.75-.75Z"/></svg>
