<svg class="icon" width="16" height="16" viewBox="0 0 16 16" fill="currentColor"><path d="M3.5 1.5h9v3.25a.75.75 0 0 0 1.5 0V1.5A1.5 1.5 0 0 0 12.5 0h-9A1.5 1.5 0 0 0 2 1.5v13A1.5 1.5 0 0 0 3.5 16h7.75a.75.75 0 0 0 0-1.5H3.5v-13Z"/><path fill-rule="evenodd" clip-rule="evenodd" d="M8.778 3.465a1.25 1.25 0 0 1 2.203 0l4.534 8.444a1.25 1.25 0 0 1-1.101 1.841H5.345a1.25 1.25 0 0 1-1.1-1.841l4.533-8.444Zm1.102 1.12L5.763 12.25h8.233L9.88 4.585Z"/><path fill-rule="evenodd" clip-rule="evenodd" d="M9.88 6.139a.75.75 0 0 1 .75.75V9.11a.75.75 0 0 1-1.5 0V6.89a.75.75 0 0 1 .75-.75Z"/><path d="M10.62 11.148a.74.74 0 1 1-1.481 0 .74.74 0 0 1 1.481 0Z"/></svg>
