<svg class="icon" width="16" height="16" viewBox="0 0 16 16" fill="currentColor"><path d="M13 12c.553 0 1-.432 1-.966V8.137c0-.533-.447-.966-1-.966h-2.01c.5-.828 1.256-1.346 2.405-1.74.738-.254.613-.815.46-1.092-.152-.277-.535-.391-.855-.317l-.02.005c-.466.108-2.838.69-3.754 3.178-.116.316-.197.573-.226.778v3.051c0 .534.448.966 1 .966h3Zm-7 0c.553 0 1-.432 1-.966V8.137c0-.533-.447-.966-1-.966H3.99c.5-.828 1.256-1.346 2.405-1.74.738-.254.613-.815.46-1.092-.152-.277-.535-.391-.855-.317l-.02.005c-.466.108-2.838.69-3.754 3.178-.116.316-.197.573-.226.778v3.051c0 .534.448.966 1 .966h3Z"/></svg>
