<svg class="icon" width="16" height="16" viewBox="0 0 16 16" xmlns="http://www.w3.org/2000/svg" fill="currentColor"><path d="M13 4.587a.5.5 0 0 1-.854.353l-1.792-1.793a.5.5 0 0 1 0-.707L12.146.647a.5.5 0 0 1 .854.354v1.043h1.25c.966 0 1.75.783 1.75 1.75v9a1.75 1.75 0 0 1-1.75 1.75H11a.75.75 0 0 1 0-1.5h3.25a.25.25 0 0 0 .25-.25v-9a.25.25 0 0 0-.25-.25H13v1.043Z"/><path fill-rule="evenodd" clip-rule="evenodd" d="M1.5 1.5V3h6V1.5h-6ZM1 0a1 1 0 0 0-1 1v2.5a1 1 0 0 0 1 1h7a1 1 0 0 0 1-1V1a1 1 0 0 0-1-1H1Zm.5 7.25v1.5h6v-1.5h-6ZM1 5.75a1 1 0 0 0-1 1v2.5a1 1 0 0 0 1 1h7a1 1 0 0 0 1-1v-2.5a1 1 0 0 0-1-1H1ZM1.5 13v1.5h6V13h-6ZM1 11.5a1 1 0 0 0-1 1V15a1 1 0 0 0 1 1h7a1 1 0 0 0 1-1v-2.5a1 1 0 0 0-1-1H1Z"/></svg>
