<svg class="icon" xmlns="http://www.w3.org/2000/svg" width="16" height="16" fill="currentColor" viewBox="0 0 16 16"><path fill-rule="evenodd" d="M9.328 2.625A9.395 9.395 0 0 1 9.22 3a8.082 8.082 0 0 1-1.127 2.33c-.547.766-1.207 1.356-1.934 1.728l-.926.475a.4.4 0 0 0-.17.181.643.643 0 0 0-.064.286c0 .101.022.201.064.285a.4.4 0 0 0 .17.181l.926.475c.727.372 1.387.962 1.934 1.727a8.08 8.08 0 0 1 1.127 2.33c.038.125.074.25.107.377l.339 1.297c.025.096.07.178.13.237s.13.09.203.09a.291.291 0 0 0 .204-.09.512.512 0 0 0 .13-.237l.339-1.296c.033-.128.069-.253.107-.377a8.08 8.08 0 0 1 1.127-2.33c.547-.766 1.207-1.356 1.933-1.728l.926-.475a.4.4 0 0 0 .17-.181A.643.643 0 0 0 15 8a.643.643 0 0 0-.064-.286.4.4 0 0 0-.17-.181l-.926-.475c-.726-.372-1.386-.962-1.933-1.727a8.08 8.08 0 0 1-1.127-2.33 9.378 9.378 0 0 1-.107-.377l-.34-1.298a.511.511 0 0 0-.129-.237A.291.291 0 0 0 10 1a.291.291 0 0 0-.203.09.511.511 0 0 0-.13.237l-.34 1.298ZM10 5.07c.203.398.432.778.686 1.133a7.28 7.28 0 0 0 1.809 1.798 7.279 7.279 0 0 0-1.809 1.797A8.874 8.874 0 0 0 10 10.93a8.89 8.89 0 0 0-.685-1.133A7.28 7.28 0 0 0 7.506 8a7.28 7.28 0 0 0 1.809-1.798A8.88 8.88 0 0 0 10 5.069Z" clip-rule="evenodd"/><path d="M2.867 2.13a.204.204 0 0 1 .052-.094A.116.116 0 0 1 3 2c.03 0 .058.013.082.036a.205.205 0 0 1 .052.095l.135.519a3.3 3.3 0 0 0 .494 1.083c.219.306.482.542.773.69l.37.19a.16.16 0 0 1 .068.073A.257.257 0 0 1 5 4.8c0 .041-.009.08-.026.114a.16.16 0 0 1-.067.073l-.37.19a2.19 2.19 0 0 0-.774.69 3.3 3.3 0 0 0-.494 1.084l-.135.518a.205.205 0 0 1-.052.095A.116.116 0 0 1 3 7.6a.116.116 0 0 1-.081-.036.204.204 0 0 1-.052-.095l-.136-.518a3.3 3.3 0 0 0-.493-1.083 2.196 2.196 0 0 0-.774-.691l-.37-.19a.16.16 0 0 1-.068-.073A.257.257 0 0 1 1 4.8c0-.04.009-.08.026-.114a.16.16 0 0 1 .067-.073l.371-.19c.29-.148.555-.384.774-.69A3.3 3.3 0 0 0 2.73 2.65l.136-.52Zm1.536 7.351a.205.205 0 0 1 .052-.094.116.116 0 0 1 .081-.036c.03 0 .058.012.082.036a.205.205 0 0 1 .052.094l.135.52a3.3 3.3 0 0 0 .494 1.082c.219.307.483.542.773.691l.37.19a.16.16 0 0 1 .068.073.257.257 0 0 1 .026.114c0 .04-.009.08-.026.114a.16.16 0 0 1-.067.072l-.37.19c-.291.15-.555.385-.774.691a3.299 3.299 0 0 0-.494 1.083l-.135.519a.204.204 0 0 1-.052.095.117.117 0 0 1-.082.036.117.117 0 0 1-.081-.036.204.204 0 0 1-.052-.095l-.136-.519a3.299 3.299 0 0 0-.493-1.083 2.195 2.195 0 0 0-.774-.69l-.37-.19a.16.16 0 0 1-.068-.073.257.257 0 0 1-.026-.114c0-.041.01-.08.026-.114a.16.16 0 0 1 .068-.073l.37-.19c.29-.149.555-.384.774-.69A3.3 3.3 0 0 0 4.267 10l.136-.519Z"/><path fill-rule="evenodd" d="M4.848 10.152c-.015-.05-.03-.1-.043-.152l-.135-.519a.205.205 0 0 0-.052-.094.116.116 0 0 0-.082-.036.116.116 0 0 0-.081.036.205.205 0 0 0-.052.094l-.136.52a3.783 3.783 0 0 1-.084.277 3.38 3.38 0 0 1-.193.451 2.938 2.938 0 0 1-.216.354 2.387 2.387 0 0 1-.485.508c-.093.071-.19.132-.289.183l-.37.19a.16.16 0 0 0-.068.073.257.257 0 0 0-.026.114c0 .04.01.08.026.114a.16.16 0 0 0 .068.072l.37.19a1.907 1.907 0 0 1 .32.207c.165.132.318.295.454.484.078.11.15.229.216.354a3.386 3.386 0 0 1 .277.73l.136.518c.01.038.028.071.052.095a.117.117 0 0 0 .081.036c.03 0 .058-.013.082-.036a.204.204 0 0 0 .052-.095l.135-.519a3.783 3.783 0 0 1 .085-.278 3.38 3.38 0 0 1 .193-.451c.065-.125.137-.243.216-.354a2.387 2.387 0 0 1 .485-.508c.092-.07.189-.132.288-.183l.37-.19a.16.16 0 0 0 .068-.072.257.257 0 0 0 .026-.114.255.255 0 0 0-.026-.114.16.16 0 0 0-.067-.073l-.37-.19a1.91 1.91 0 0 1-.32-.207 2.386 2.386 0 0 1-.454-.484 2.938 2.938 0 0 1-.216-.354 3.38 3.38 0 0 1-.235-.577Z" clip-rule="evenodd"/></svg>
