<svg class="icon" width="16" height="16" viewBox="0 0 16 16" fill="currentColor"><g clip-path="url(#tag__a)"><path fill-rule="evenodd" clip-rule="evenodd" d="m6.84 1.89 7.27 7.27-4.95 4.95-7.27-7.27.778-4.172L6.84 1.89ZM.83 7.9a1.5 1.5 0 0 1-.414-1.335l.777-4.172a1.5 1.5 0 0 1 1.2-1.2L6.565.416a1.5 1.5 0 0 1 1.336.413l7.27 7.27a1.5 1.5 0 0 1 0 2.122l-4.95 4.95a1.5 1.5 0 0 1-2.122 0L.83 7.9Zm4.709-2.36a1 1 0 1 0-1.414-1.414A1 1 0 0 0 5.539 5.54Z"/></g><defs><clipPath id="tag__a"><path d="M0 0h16v16H0z"/></clipPath></defs></svg>
