<svg class="icon" width="16" height="16" viewBox="0 0 16 16" fill="currentColor"><g fill-rule="evenodd" clip-rule="evenodd" clip-path="url(#times-circle__a)"><path d="M8 1.5a6.5 6.5 0 1 0 0 13 6.5 6.5 0 0 0 0-13ZM0 8a8 8 0 1 1 16 0A8 8 0 0 1 0 8Z"/><path d="M4.641 4.641a.75.75 0 0 1 1.06 0L8 6.94l2.298-2.298a.75.75 0 0 1 1.06 1.06L9.062 8l2.298 2.298a.75.75 0 0 1-1.06 1.06L8 9.062 5.702 11.36a.75.75 0 0 1-1.06-1.06L6.938 8 4.641 5.702a.75.75 0 0 1 0-1.06Z"/></g><defs><clipPath id="times-circle__a"><path d="M0 0h16v16H0z"/></clipPath></defs></svg>
