<svg class="icon" width="16" height="16" viewBox="0 0 16 16" xmlns="http://www.w3.org/2000/svg" fill="currentColor"><path fill-rule="evenodd" clip-rule="evenodd" d="m6.328 1.5-.496 1.25h4.882l-.496-1.25h-3.89Zm6 1.25L11.55.79A1.25 1.25 0 0 0 10.388 0h-4.23a1.25 1.25 0 0 0-1.162.79l-.778 1.96H2a.75.75 0 0 0 0 1.5h12a.75.75 0 0 0 0-1.5h-1.672Zm-9.87 2.505a.75.75 0 0 1 .832.657L4.303 14.5h7.394l1.013-8.588a.75.75 0 1 1 1.49.176l-1.04 8.808A1.25 1.25 0 0 1 11.92 16H4.08a1.25 1.25 0 0 1-1.24-1.104L1.8 6.088a.75.75 0 0 1 .658-.833Z"/><path fill-rule="evenodd" clip-rule="evenodd" d="M8 5.75a.75.75 0 0 1 .75.75V13a.75.75 0 0 1-1.5 0V6.5A.75.75 0 0 1 8 5.75Z"/></svg>
