<svg class="icon" width="16" height="16" viewBox="0 0 16 16" fill="currentColor"><g clip-path="url(#user-image-slash__a)"><path d="M0 8a7.96 7.96 0 0 0 .95 3.783l1.119-1.12a6.5 6.5 0 0 1 8.594-8.594l1.12-1.12A8 8 0 0 0 0 8Z"/><path fill-rule="evenodd" clip-rule="evenodd" d="M14.162 2.898 15.53 1.53A.75.75 0 0 0 14.47.47l-14 14a.75.75 0 1 0 1.06 1.06l1.368-1.368A8 8 0 0 0 14.162 2.898Zm-1.066 1.067-1.465 1.464a3.714 3.714 0 0 1-4.416 4.416l-.547.548H10.5c1.138 0 2.164.475 2.893 1.237A6.47 6.47 0 0 0 14.5 8a6.473 6.473 0 0 0-1.404-4.035Z"/><path d="m4.739 7.993 5.04-5.04a3.714 3.714 0 0 0-5.04 5.04Z"/></g><defs><clipPath id="user-image-slash__a"><path d="M0 0h16v16H0z"/></clipPath></defs></svg>
