<svg xmlns="http://www.w3.org/2000/svg" class="icon" width="16" height="16" fill="currentColor" viewBox="0 0 16 16"><path d="M5.207 4h5.586a.5.5 0 00.353-.854L8.354.354a.5.5 0 00-.708 0L4.854 3.146A.5.5 0 005.207 4zM11.146 12.854a.5.5 0 00-.353-.854H5.207a.5.5 0 00-.353.854l2.792 2.792a.5.5 0 00.708 0l2.792-2.792z"/><path fill-rule="evenodd" d="M7.25 12V4h1.5v8h-1.5z" clip-rule="evenodd"/><path d="M3.146 11.146A.5.5 0 004 10.793V5.207a.5.5 0 00-.854-.353L.354 7.646a.5.5 0 000 .708l2.792 2.792zM12.854 4.854a.5.5 0 00-.854.353v5.586a.5.5 0 00.854.353l2.792-2.792a.5.5 0 000-.708l-2.792-2.792z"/><path fill-rule="evenodd" d="M3.25 7.25h9.5v1.5h-9.5v-1.5z" clip-rule="evenodd"/></svg>
