<svg xmlns="http://www.w3.org/2000/svg" class="icon" width="16" height="16" fill="currentColor" viewBox="0 0 16 16"><path d="M13.146 7.146A.5.5 0 0014 6.793V2.5a.5.5 0 00-.5-.5H9.207a.5.5 0 00-.353.854l4.292 4.292z"/><path fill-rule="evenodd" d="M11.53 4.47a.75.75 0 010 1.06l-5.5 5.5a.75.75 0 11-1.06-1.06l5.5-5.5a.75.75 0 011.06 0z" clip-rule="evenodd"/><path fill-rule="evenodd" d="M.75 7A2.25 2.25 0 013 4.75h3a.75.75 0 010 1.5H3a.75.75 0 00-.75.75v6c0 .414.336.75.75.75h6a.75.75 0 00.75-.75v-3a.75.75 0 011.5 0v3A2.25 2.25 0 019 15.25H3A2.25 2.25 0 01.75 13V7z" clip-rule="evenodd"/></svg>
