<svg xmlns="http://www.w3.org/2000/svg" class="icon" width="16" height="16" fill="currentColor" viewBox="0 0 16 16"><path d="M1.854 1.354A.5.5 0 001 1.707V6a.5.5 0 00.5.5h4.293a.5.5 0 00.353-.854L1.854 1.354z"/><path fill-rule="evenodd" d="M8 2.5a5.487 5.487 0 00-4.227 1.98.75.75 0 01-1.152-.96 7.002 7.002 0 0112.29 3.361.75.75 0 11-1.481.238A5.502 5.502 0 008 2.5zM1.71 8.26a.75.75 0 01.86.62 5.502 5.502 0 009.656 2.64.75.75 0 011.153.96A7.002 7.002 0 011.089 9.12a.75.75 0 01.621-.86z" clip-rule="evenodd"/><path d="M14.146 14.646a.5.5 0 00.854-.353V10a.5.5 0 00-.5-.5h-4.293a.5.5 0 00-.353.854l4.292 4.292z"/></svg>
