<svg xmlns="http://www.w3.org/2000/svg" class="icon" width="16" height="16" fill="currentColor" viewBox="0 0 16 16"><path fill-rule="evenodd" d="M0 4.75A2.25 2.25 0 012.25 2.5h11.5A2.25 2.25 0 0116 4.75v9A2.25 2.25 0 0113.75 16H2.25A2.25 2.25 0 010 13.75v-9zM1.5 7v6.75c0 .414.336.75.75.75h11.5a.75.75 0 00.75-.75V7h-13zM4 0a1 1 0 011 1v1.5H3V1a1 1 0 011-1zM12 0a1 1 0 011 1v1.5h-2V1a1 1 0 011-1z" clip-rule="evenodd"/><path fill-rule="evenodd" d="M7.25 10V7h1.5v3h5.75v1.5H8.75v3h-1.5v-3H1.5V10h5.75z" clip-rule="evenodd"/></svg>
