<svg xmlns="http://www.w3.org/2000/svg" class="icon" width="16" height="16" fill="currentColor" viewBox="0 0 16 16"><path fill-rule="evenodd" d="M8 4.25a.75.75 0 00-.75.75v3.536l-1.585.793a.75.75 0 10.67 1.342L8.75 9.464V5A.75.75 0 008 4.25z" clip-rule="evenodd"/><path d="M9.854 5.646a.5.5 0 00.353.854H14.5A.5.5 0 0015 6V1.707a.5.5 0 00-.854-.353L9.854 5.646z"/><path fill-rule="evenodd" d="M5.321 1.533A7 7 0 0112.95 3.05a.75.75 0 01-1.06 1.06 5.5 5.5 0 100 7.78.75.75 0 111.06 1.06A7 7 0 115.32 1.533z" clip-rule="evenodd"/></svg>
