<svg xmlns="http://www.w3.org/2000/svg" class="icon" width="16" height="16" fill="currentColor" viewBox="0 0 16 16"><path fill-rule="evenodd" d="M7.442 4.25c-2.129 0-3.711 1.53-3.711 3.25 0 .275.039.542.112.796a.75.75 0 01-.763.957 1.772 1.772 0 00-.1-.003c-.896 0-1.48.635-1.48 1.25s.584 1.25 1.48 1.25h8.924c1.513 0 2.596-1.082 2.596-2.25s-1.083-2.25-2.596-2.25c-.038 0-.075 0-.112.002a.75.75 0 01-.749-.543c-.391-1.367-1.815-2.459-3.6-2.459zM2.231 7.5c0-2.698 2.412-4.75 5.211-4.75 2.168 0 4.084 1.218 4.855 3.017C14.31 5.947 16 7.484 16 9.5c0 2.146-1.913 3.75-4.096 3.75H2.98C1.414 13.25 0 12.094 0 10.5c0-1.338.996-2.368 2.244-2.664A4.394 4.394 0 012.23 7.5z" clip-rule="evenodd"/></svg>
