<svg xmlns="http://www.w3.org/2000/svg" class="icon" width="16" height="16" fill="currentColor" viewBox="0 0 16 16"><path fill-rule="evenodd" d="M2.25 9A.75.75 0 013 8.25h10a.75.75 0 010 1.5h-2.25v1.5h2.249L13 12v.75h-2.25v2.249L10 15h-.75v-2.25h-2.5V15a.75.75 0 01-1.5 0v-2.25H3a.75.75 0 010-1.5h2.25v-1.5H3A.75.75 0 012.25 9zm4.5.75v1.5h2.5v-1.5h-2.5zM10 15h-.75a.75.75 0 001.5 0H10zm3-3v.75a.75.75 0 000-1.5V12z" clip-rule="evenodd"/><path fill-rule="evenodd" d="M3.5 14.5h9V3.621L10.379 1.5H3.5v13zm9 1.5h-9A1.5 1.5 0 012 14.5v-13A1.5 1.5 0 013.5 0h6.879a1.5 1.5 0 011.06.44l2.122 2.12A1.5 1.5 0 0114 3.622V14.5a1.5 1.5 0 01-1.5 1.5z" clip-rule="evenodd"/></svg>
