<svg xmlns="http://www.w3.org/2000/svg" class="icon" width="16" height="16" fill="currentColor" viewBox="0 0 16 16"><path d="M9 2.5a.5.5 0 00-.5-.5h-1a.5.5 0 00-.5.5v1H5.5A.5.5 0 005 4v.5a.5.5 0 00.5.5H7v1.5H5.5A.5.5 0 005 7v.5a.5.5 0 00.5.5H7v1a.5.5 0 00.5.5h1A.5.5 0 009 9v-.5a.5.5 0 00-.5-.5H7V6.5h1.5A.5.5 0 009 6v-.5a.5.5 0 00-.5-.5H7V3.5h1.5A.5.5 0 009 3v-.5zM7.86 13a.5.5 0 00.485-.621l-.5-2A.5.5 0 007.36 10h-.72a.5.5 0 00-.485.379l-.5 2A.5.5 0 006.14 13h1.72z"/><path fill-rule="evenodd" d="M3.5 14.5h9V3.621L10.379 1.5H3.5v13zm9 1.5h-9A1.5 1.5 0 012 14.5v-13A1.5 1.5 0 013.5 0h6.879a1.5 1.5 0 011.06.44l2.122 2.12A1.5 1.5 0 0114 3.622V14.5a1.5 1.5 0 01-1.5 1.5z" clip-rule="evenodd"/></svg>
