<svg xmlns="http://www.w3.org/2000/svg" class="icon" width="16" height="16" fill="currentColor" viewBox="0 0 16 16"><path fill-rule="evenodd" d="M3.5 14.5h9V3.621L10.379 1.5H3.5v13zm9 1.5h-9A1.5 1.5 0 012 14.5v-13A1.5 1.5 0 013.5 0h6.879a1.5 1.5 0 011.06.44l2.122 2.12A1.5 1.5 0 0114 3.622V14.5a1.5 1.5 0 01-1.5 1.5z" clip-rule="evenodd"/><path fill-rule="evenodd" d="M3.909 9.305a1.75 1.75 0 012.864-.13l1.47 1.91a.25.25 0 00.23.096l2.679-.356a1.75 1.75 0 011.524.557l1.063 1.168-1.11 1.01-1.062-1.168a.25.25 0 00-.218-.08l-2.678.356A1.75 1.75 0 017.054 12l-1.47-1.91a.25.25 0 00-.409.018l-1.857 2.927-1.267-.804L3.91 9.305z" clip-rule="evenodd"/><path d="M11.5 8.5a1.5 1.5 0 11-3 0 1.5 1.5 0 013 0z"/></svg>
