<svg xmlns="http://www.w3.org/2000/svg" class="icon" width="16" height="16" fill="currentColor" viewBox="0 0 16 16"><path fill-rule="evenodd" d="M3.315 12.508a2 2 0 010-2.829l.884-.884a.75.75 0 10-1.06-1.06l-.884.884a3.5 3.5 0 004.95 4.95l2.298-2.299a3.5 3.5 0 000-4.95.75.75 0 10-1.061 1.061 2 2 0 010 2.829l-2.298 2.298a2 2 0 01-2.829 0zM6.497 4.73a3.5 3.5 0 000 4.95.75.75 0 101.061-1.061 2 2 0 010-2.829l2.298-2.298a2 2 0 012.829 2.829l-.884.883a.75.75 0 101.06 1.061l.884-.884a3.5 3.5 0 10-4.95-4.95L6.497 4.73z" clip-rule="evenodd"/></svg>
