<svg xmlns="http://www.w3.org/2000/svg" class="icon" width="16" height="16" fill="currentColor" viewBox="0 0 16 16"><path fill-rule="evenodd" d="M12.5 1.5h-9v13h9v-13zM3.5 0A1.5 1.5 0 002 1.5v13A1.5 1.5 0 003.5 16h9a1.5 1.5 0 001.5-1.5v-13A1.5 1.5 0 0012.5 0h-9z" clip-rule="evenodd"/><path d="M11 6H5a.5.5 0 00-.5.5v2A.5.5 0 005 9h6a.5.5 0 00.5-.5v-2A.5.5 0 0011 6zM5 13h6a.5.5 0 00.5-.5v-2a.5.5 0 00-.5-.5H5a.5.5 0 00-.5.5v2a.5.5 0 00.5.5zM4.5 4.25a.75.75 0 01.75-.75h2.5a.75.75 0 010 1.5h-2.5a.75.75 0 01-.75-.75z"/></svg>
