<svg xmlns="http://www.w3.org/2000/svg" class="icon" width="16" height="16" fill="currentColor" viewBox="0 0 16 16"><path d="M4.195 12.864a.247.247 0 01-.312.019l-1.363-.976a.254.254 0 01-.034-.382c.512-.539.899-1.04 1.16-1.5.24-.426.418-.86.534-1.303a.239.239 0 00-.236-.296H2.25a.25.25 0 01-.25-.25V4.25A.25.25 0 012.25 4h4.316a.25.25 0 01.25.25v2.762c0 1.116-.2 2.157-.602 3.124-.382.92-1.055 1.83-2.019 2.728zm7.184 0a.247.247 0 01-.312.019l-1.363-.976a.254.254 0 01-.034-.382c.512-.539.899-1.04 1.16-1.5.24-.426.418-.86.534-1.303a.239.239 0 00-.236-.296H9.434a.25.25 0 01-.25-.25V4.25a.25.25 0 01.25-.25h4.316a.25.25 0 01.25.25v2.762c0 1.116-.2 2.157-.602 3.124-.382.92-1.055 1.83-2.019 2.728z"/></svg>
