<svg xmlns="http://www.w3.org/2000/svg" class="icon" width="16" height="16" fill="currentColor" viewBox="0 0 16 16"><path fill-rule="evenodd" d="M4.53 6.528l-.252.836H3L4.44 3h1.62L7.5 7.364H6.222l-.252-.836H4.53zm.703-2.326l-.435 1.44h.904l-.435-1.44h-.034z" clip-rule="evenodd"/><path fill-rule="evenodd" d="M1.5 0A1.5 1.5 0 000 1.5V9a1.5 1.5 0 001.5 1.5h4v4A1.5 1.5 0 007 16h7.5a1.5 1.5 0 001.5-1.5V7a1.5 1.5 0 00-1.5-1.5h-4v-4A1.5 1.5 0 009 0H1.5zM9 1.5H1.5V9H9V1.5zm3.155 8.735H9.851c.288-.198.502-.494.596-.84h.371v-.364c0-.217-.014-.469-.042-.644h1.001a5.737 5.737 0 00-.042.644v.364h.84c.217 0 .413-.02.581-.07l.581.567c-.145.14-.307.318-.445.47l-.1.111c-.358.406-.89.931-1.47 1.372 0 .297-.003.65-.005.983l-.003.781c0 .28.028.68.05.896h-1.009c.028-.196.056-.616.056-.896v-1.197c-.644.343-1.393.63-2.149.861l-.539-.826a8.694 8.694 0 002.856-1.169c.54-.35.973-.756 1.176-1.043zm1.68 3.108l.588-.77a15.78 15.78 0 00-1.68-1.015l-.58.672c.608.336 1.063.63 1.672 1.113z" clip-rule="evenodd"/></svg>
