<svg width="200pt" height="200pt" viewBox="0 0 200 200" version="1.1" xmlns="http://www.w3.org/2000/svg">
<g id="#f9f9f9ff">
</g>
<g id="#000000ff">
<path fill="#fff" opacity="1.00" d=" M 31.79 14.82 C 41.80 9.00 53.71 8.69 64.96 8.05 C 86.30 7.92 107.65 8.06 129.00 7.99 C 137.32 7.95 145.66 8.51 153.88 9.79 C 167.39 12.03 179.90 20.73 185.90 33.16 C 191.05 42.90 191.31 54.20 191.95 64.95 C 192.08 86.30 191.94 107.65 192.01 129.00 C 192.07 137.03 191.50 145.06 190.35 153.01 C 188.41 165.85 180.83 178.02 169.40 184.45 C 162.38 188.69 154.20 190.87 146.03 191.15 C 144.35 191.31 143.23 189.85 142.10 188.88 C 132.30 179.03 122.51 169.16 112.61 159.40 C 111.09 157.79 109.35 156.17 108.77 153.95 C 108.29 151.19 110.45 149.02 112.17 147.19 C 123.40 136.07 134.52 124.84 145.73 113.72 C 147.97 111.92 148.62 108.48 146.74 106.18 C 144.11 102.88 140.99 99.85 137.44 97.55 C 134.45 96.30 131.88 99.03 129.90 100.90 C 119.32 111.65 108.54 122.19 97.99 132.96 C 95.97 135.06 93.32 137.47 90.18 136.22 C 86.10 133.60 83.19 129.59 79.67 126.33 C 75.96 122.35 71.55 118.98 68.42 114.51 C 66.57 111.98 68.64 109.22 70.47 107.44 C 82.82 95.14 95.14 82.81 107.46 70.49 C 109.68 68.53 110.97 64.76 108.57 62.42 C 105.81 59.46 103.14 56.29 99.75 54.04 C 97.32 52.69 94.60 54.13 92.92 55.97 C 74.70 74.37 56.26 92.55 38.06 110.95 C 35.43 113.30 35.18 117.72 37.95 120.06 C 57.47 139.54 76.95 159.05 96.46 178.53 C 100.83 182.98 105.40 187.21 109.53 191.89 C 95.01 192.10 80.49 191.99 65.96 191.97 C 54.41 191.41 42.16 191.19 31.88 185.19 C 19.81 178.90 11.63 166.35 9.65 153.01 C 8.60 145.72 8.02 138.36 7.99 130.99 C 8.00 111.66 8.01 92.33 7.99 73.00 C 7.88 64.01 8.39 54.99 9.80 46.11 C 11.93 33.09 20.08 21.05 31.79 14.82 Z" />
</g>
</svg>
