<svg xmlns="http://www.w3.org/2000/svg" viewBox="0 0 512 512"><g fill="none" fill-rule="evenodd"><circle fill="#ededed" cx="256" cy="256" r="256"/><path d="M256 258.4c10.133 0 19.6-2.533 28.4-7.6 8.4-5.067 15.133-11.8 20.2-20.2 5.067-8.8 7.6-18.267 7.6-28.4s-2.533-19.6-7.6-28.4c-5.067-8.4-11.8-15.133-20.2-20.2-8.8-5.067-18.267-7.6-28.4-7.6s-19.6 2.533-28.4 7.6c-8.4 5.067-15.133 11.8-20.2 20.2-5.067 8.8-7.6 18.267-7.6 28.4s2.533 19.6 7.6 28.4c5.067 8.4 11.8 15.133 20.2 20.2 8.8 5.067 18.267 7.6 28.4 7.6zm81.2 87.6c5.2 0 9.633-1.833 13.3-5.5 3.667-3.667 5.5-8.1 5.5-13.3V321c0-9.067-2.233-17.433-6.7-25.1-4.467-7.667-10.533-13.733-18.2-18.2-7.667-4.467-16.033-6.7-25.1-6.7h-21.6c-8.933 4.133-18.4 6.2-28.4 6.2s-19.467-2.067-28.4-6.2H206c-9.067 0-17.433 2.233-25.1 6.7-7.667 4.467-13.733 10.533-18.2 18.2-4.467 7.667-6.7 16.033-6.7 25.1v6.2c0 5.2 1.833 9.633 5.5 13.3 3.667 3.667 8.1 5.5 13.3 5.5h162.4z" fill="#c9c9c9" fill-rule="nonzero"/></g></svg>
