<svg xmlns="http://www.w3.org/2000/svg" viewBox="0 0 700 700"><defs><linearGradient x1="28.528%" y1="0%" x2="77.161%" y2="90.229%" id="a"><stop stop-color="#FFF" offset="0%"/><stop stop-color="#FFF" stop-opacity=".85" offset="100%"/></linearGradient></defs><g fill="none" fill-rule="evenodd"><path d="M230.75 0h238.5c80.237 0 109.333 8.354 138.666 24.042C637.25 39.73 660.27 62.75 675.958 92.084 691.646 121.417 700 150.513 700 230.75v238.5c0 80.237-8.354 109.333-24.042 138.666-15.688 29.333-38.709 52.354-68.042 68.042C578.583 691.646 549.487 700 469.25 700h-238.5c-80.237 0-109.333-8.354-138.666-24.042C62.75 660.27 39.73 637.25 24.042 607.916 8.354 578.583 0 549.487 0 469.25v-238.5c0-80.237 8.354-109.333 24.042-138.666C39.73 62.75 62.75 39.73 92.084 24.042 121.417 8.354 150.513 0 230.75 0z" fill="#444"/><path d="M232.908 736.616v-506.46c0-11.046 8.955-20 20-20h305c11.046 0 20 8.954 20 20v36.915c0 11.046-8.954 20-20 20H347.746c-11.046 0-20 8.954-20 20v103.377c0 11.045 8.954 20 20 20h195.227c11.046 0 20 8.954 20 20v36.915c0 11.046-8.954 20-20 20H347.746c-11.046 0-20 8.954-20 20v209.253h-94.838z" fill="url(#a)" transform="rotate(-45 405.408 473.386)"/></g></svg>